<svg xmlns="http://www.w3.org/2000/svg" xmlns:xlink="http://www.w3.org/1999/xlink" width="150" zoomAndPan="magnify" viewBox="0 0 112.5 37.5" height="50" preserveAspectRatio="xMidYMid meet" version="1.2"><defs><clipPath id="b14b392293"><path d="M 0.492188 0 L 111.511719 0 L 111.511719 37.007812 L 0.492188 37.007812 Z M 0.492188 0 "/></clipPath></defs><g id="47e7fa414c"><g clip-rule="nonzero" clip-path="url(#b14b392293)"><path style=" stroke:none;fill-rule:nonzero;fill:#ffffff;fill-opacity:1;" d="M 0.492188 0 L 111.511719 0 L 111.511719 37.007812 L 0.492188 37.007812 Z M 0.492188 0 "/><path style=" stroke:none;fill-rule:nonzero;fill:#ffffff;fill-opacity:1;" d="M 0.492188 0 L 111.511719 0 L 111.511719 37.007812 L 0.492188 37.007812 Z M 0.492188 0 "/></g><g style="fill:#000000;fill-opacity:1;"><g transform="translate(1.15295, 22.429833)"><path style="stroke:none" d="M 8.515625 1.078125 C 8.578125 1.421875 8.597656 1.769531 8.578125 2.125 C 8.578125 2.21875 8.566406 2.304688 8.546875 2.390625 C 8.535156 2.472656 8.523438 2.5625 8.515625 2.65625 C 8.503906 2.726562 8.492188 2.804688 8.484375 2.890625 C 8.472656 2.972656 8.445312 3.046875 8.40625 3.109375 C 8.34375 3.179688 8.253906 3.21875 8.140625 3.21875 C 8.085938 3.21875 8.019531 3.207031 7.9375 3.1875 C 7.863281 3.175781 7.800781 3.164062 7.75 3.15625 C 7.4375 3.09375 7.085938 3.019531 6.703125 2.9375 C 6.328125 2.863281 5.96875 2.75 5.625 2.59375 C 5.28125 2.4375 5.003906 2.238281 4.796875 2 C 4.328125 1.425781 4.046875 0.765625 3.953125 0.015625 C 3.910156 -0.429688 3.882812 -0.863281 3.875 -1.28125 C 3.863281 -1.695312 3.789062 -2.113281 3.65625 -2.53125 C 3.644531 -2.582031 3.597656 -2.703125 3.515625 -2.890625 C 3.441406 -3.085938 3.351562 -3.273438 3.25 -3.453125 C 3.15625 -3.640625 3.054688 -3.734375 2.953125 -3.734375 C 2.867188 -3.734375 2.816406 -3.695312 2.796875 -3.625 C 2.785156 -3.550781 2.78125 -3.484375 2.78125 -3.421875 C 2.800781 -3.035156 2.832031 -2.648438 2.875 -2.265625 C 2.925781 -1.878906 2.988281 -1.488281 3.0625 -1.09375 C 3.09375 -0.988281 3.113281 -0.890625 3.125 -0.796875 C 3.144531 -0.703125 3.15625 -0.601562 3.15625 -0.5 C 3.15625 -0.46875 3.148438 -0.429688 3.140625 -0.390625 C 3.140625 -0.347656 3.128906 -0.316406 3.109375 -0.296875 C 3.054688 -0.222656 2.921875 -0.160156 2.703125 -0.109375 C 2.484375 -0.0664062 2.257812 -0.0351562 2.03125 -0.015625 C 1.8125 0.00390625 1.65625 0.015625 1.5625 0.015625 C 1.34375 0.015625 1.109375 0.0078125 0.859375 0 C 0.617188 -0.0078125 0.394531 -0.046875 0.1875 -0.109375 C 0.175781 -0.117188 0.160156 -0.128906 0.140625 -0.140625 C 0.117188 -0.148438 0.09375 -0.160156 0.0625 -0.171875 C 0.0390625 -0.191406 0.03125 -0.222656 0.03125 -0.265625 C 0.03125 -0.316406 0.0351562 -0.359375 0.046875 -0.390625 C 0.140625 -0.859375 0.21875 -1.320312 0.28125 -1.78125 C 0.351562 -2.25 0.382812 -2.722656 0.375 -3.203125 C 0.363281 -3.578125 0.328125 -3.957031 0.265625 -4.34375 C 0.203125 -4.726562 0.128906 -5.101562 0.046875 -5.46875 C 0.046875 -5.519531 0.046875 -5.570312 0.046875 -5.625 C 0.046875 -5.6875 0.046875 -5.75 0.046875 -5.8125 C 0.109375 -6.070312 0.164062 -6.328125 0.21875 -6.578125 C 0.28125 -6.835938 0.316406 -7.101562 0.328125 -7.375 C 0.335938 -7.84375 0.316406 -8.300781 0.265625 -8.75 C 0.222656 -9.195312 0.148438 -9.644531 0.046875 -10.09375 C 0.0234375 -10.21875 0.0078125 -10.347656 0 -10.484375 C -0.0078125 -10.628906 0.0234375 -10.75 0.109375 -10.84375 C 0.160156 -10.925781 0.234375 -10.984375 0.328125 -11.015625 C 0.429688 -11.054688 0.535156 -11.085938 0.640625 -11.109375 C 1.035156 -11.171875 1.429688 -11.203125 1.828125 -11.203125 C 2.191406 -11.203125 2.5625 -11.171875 2.9375 -11.109375 C 3.3125 -11.054688 3.675781 -10.984375 4.03125 -10.890625 C 4.394531 -10.785156 4.703125 -10.585938 4.953125 -10.296875 C 5.210938 -10.015625 5.421875 -9.691406 5.578125 -9.328125 C 5.742188 -8.972656 5.863281 -8.625 5.9375 -8.28125 C 6.050781 -7.695312 6.023438 -7.132812 5.859375 -6.59375 C 5.804688 -6.363281 5.71875 -6.144531 5.59375 -5.9375 C 5.476562 -5.738281 5.320312 -5.5625 5.125 -5.40625 C 5.082031 -5.351562 5.015625 -5.304688 4.921875 -5.265625 C 4.828125 -5.222656 4.785156 -5.160156 4.796875 -5.078125 C 4.796875 -5.023438 4.8125 -4.976562 4.84375 -4.9375 C 4.875 -4.90625 4.898438 -4.867188 4.921875 -4.828125 C 5.210938 -4.453125 5.445312 -4.03125 5.625 -3.5625 C 5.8125 -3.101562 5.9375 -2.632812 6 -2.15625 C 6.019531 -2.113281 6.03125 -2.070312 6.03125 -2.03125 C 6.03125 -1.988281 6.035156 -1.953125 6.046875 -1.921875 L 6.046875 -1.796875 C 6.066406 -1.640625 6.078125 -1.472656 6.078125 -1.296875 C 6.078125 -1.128906 6.097656 -0.96875 6.140625 -0.8125 L 6.171875 -0.671875 C 6.171875 -0.648438 6.175781 -0.628906 6.1875 -0.609375 C 6.1875 -0.578125 6.191406 -0.554688 6.203125 -0.546875 C 6.335938 -0.160156 6.550781 0.128906 6.84375 0.328125 C 7.144531 0.535156 7.503906 0.648438 7.921875 0.671875 C 8.015625 0.679688 8.109375 0.691406 8.203125 0.703125 C 8.304688 0.722656 8.382812 0.773438 8.4375 0.859375 C 8.457031 0.878906 8.472656 0.910156 8.484375 0.953125 C 8.492188 0.992188 8.503906 1.035156 8.515625 1.078125 Z M 3.703125 -7.015625 C 3.867188 -7.242188 3.9375 -7.492188 3.90625 -7.765625 C 3.875 -8.035156 3.765625 -8.269531 3.578125 -8.46875 C 3.390625 -8.675781 3.144531 -8.773438 2.84375 -8.765625 C 2.789062 -8.765625 2.75 -8.753906 2.71875 -8.734375 C 2.695312 -8.710938 2.675781 -8.671875 2.65625 -8.609375 C 2.582031 -8.296875 2.539062 -7.976562 2.53125 -7.65625 C 2.519531 -7.34375 2.550781 -7.03125 2.625 -6.71875 C 2.632812 -6.707031 2.640625 -6.691406 2.640625 -6.671875 C 2.648438 -6.660156 2.660156 -6.640625 2.671875 -6.609375 C 2.691406 -6.585938 2.71875 -6.578125 2.75 -6.578125 L 2.796875 -6.578125 C 2.972656 -6.578125 3.140625 -6.609375 3.296875 -6.671875 C 3.460938 -6.742188 3.597656 -6.859375 3.703125 -7.015625 Z M 3.703125 -7.015625 "/></g></g><g style="fill:#000000;fill-opacity:1;"><g transform="translate(8.179784, 22.429833)"><path style="stroke:none" d="M 6.65625 -9.140625 L 6.5625 -8.796875 C 6.539062 -8.722656 6.507812 -8.65625 6.46875 -8.59375 C 6.4375 -8.53125 6.394531 -8.488281 6.34375 -8.46875 C 6.269531 -8.445312 6.210938 -8.4375 6.171875 -8.4375 C 6.140625 -8.4375 6.101562 -8.4375 6.0625 -8.4375 C 6.03125 -8.445312 6 -8.457031 5.96875 -8.46875 C 5.71875 -8.539062 5.472656 -8.601562 5.234375 -8.65625 C 4.992188 -8.707031 4.742188 -8.742188 4.484375 -8.765625 C 4.296875 -8.765625 4.082031 -8.75 3.84375 -8.71875 C 3.601562 -8.6875 3.390625 -8.613281 3.203125 -8.5 C 3.023438 -8.382812 2.925781 -8.195312 2.90625 -7.9375 C 2.90625 -7.59375 2.953125 -7.3125 3.046875 -7.09375 C 3.140625 -6.875 3.378906 -6.765625 3.765625 -6.765625 C 3.890625 -6.765625 4.046875 -6.78125 4.234375 -6.8125 C 4.421875 -6.851562 4.566406 -6.894531 4.671875 -6.9375 C 4.722656 -6.945312 4.765625 -6.953125 4.796875 -6.953125 C 4.828125 -6.960938 4.859375 -6.96875 4.890625 -6.96875 C 5.078125 -6.96875 5.191406 -6.875 5.234375 -6.6875 C 5.273438 -6.5 5.304688 -6.3125 5.328125 -6.125 C 5.347656 -5.851562 5.347656 -5.582031 5.328125 -5.3125 C 5.304688 -5.039062 5.265625 -4.773438 5.203125 -4.515625 L 5.15625 -4.390625 C 5.132812 -4.335938 5.097656 -4.300781 5.046875 -4.28125 C 5.003906 -4.269531 4.960938 -4.257812 4.921875 -4.25 C 4.867188 -4.25 4.820312 -4.253906 4.78125 -4.265625 C 4.738281 -4.273438 4.6875 -4.285156 4.625 -4.296875 C 4.507812 -4.335938 4.390625 -4.367188 4.265625 -4.390625 C 4.148438 -4.421875 4.03125 -4.4375 3.90625 -4.4375 C 3.738281 -4.4375 3.566406 -4.40625 3.390625 -4.34375 C 3.222656 -4.28125 3.097656 -4.171875 3.015625 -4.015625 C 2.960938 -3.878906 2.929688 -3.738281 2.921875 -3.59375 C 2.910156 -3.445312 2.925781 -3.304688 2.96875 -3.171875 C 2.988281 -3.097656 3.007812 -3.03125 3.03125 -2.96875 C 3.050781 -2.914062 3.085938 -2.867188 3.140625 -2.828125 C 3.191406 -2.773438 3.265625 -2.738281 3.359375 -2.71875 C 3.453125 -2.695312 3.535156 -2.679688 3.609375 -2.671875 C 4.117188 -2.671875 4.566406 -2.691406 4.953125 -2.734375 C 5.335938 -2.773438 5.78125 -2.878906 6.28125 -3.046875 C 6.320312 -3.054688 6.363281 -3.066406 6.40625 -3.078125 C 6.445312 -3.097656 6.488281 -3.109375 6.53125 -3.109375 C 6.65625 -3.085938 6.753906 -3.019531 6.828125 -2.90625 C 6.898438 -2.800781 6.941406 -2.691406 6.953125 -2.578125 C 7.117188 -2.046875 7.15625 -1.5 7.0625 -0.9375 C 7.050781 -0.695312 7 -0.476562 6.90625 -0.28125 C 6.8125 -0.0820312 6.617188 0.015625 6.328125 0.015625 C 6.242188 0.015625 6.15625 0.0078125 6.0625 0 C 5.976562 -0.0078125 5.890625 -0.0195312 5.796875 -0.03125 C 5.359375 -0.0820312 4.921875 -0.117188 4.484375 -0.140625 C 4.046875 -0.171875 3.609375 -0.1875 3.171875 -0.1875 C 2.722656 -0.1875 2.273438 -0.164062 1.828125 -0.125 C 1.390625 -0.09375 0.953125 -0.0351562 0.515625 0.046875 C 0.492188 0.0546875 0.460938 0.0664062 0.421875 0.078125 C 0.378906 0.0976562 0.335938 0.109375 0.296875 0.109375 C 0.210938 0.109375 0.15625 0.0664062 0.125 -0.015625 C 0.09375 -0.046875 0.09375 -0.101562 0.125 -0.1875 C 0.195312 -0.488281 0.269531 -0.785156 0.34375 -1.078125 C 0.425781 -1.378906 0.476562 -1.679688 0.5 -1.984375 C 0.519531 -2.316406 0.523438 -2.65625 0.515625 -3 C 0.515625 -3.34375 0.5 -3.6875 0.46875 -4.03125 C 0.457031 -4.269531 0.421875 -4.503906 0.359375 -4.734375 C 0.304688 -4.960938 0.210938 -5.1875 0.078125 -5.40625 C 0.0664062 -5.4375 0.0507812 -5.460938 0.03125 -5.484375 C 0.0078125 -5.515625 0 -5.550781 0 -5.59375 C -0.0078125 -5.644531 -0.00390625 -5.691406 0.015625 -5.734375 C 0.0351562 -5.773438 0.0546875 -5.816406 0.078125 -5.859375 C 0.273438 -6.210938 0.40625 -6.582031 0.46875 -6.96875 C 0.539062 -7.363281 0.5625 -7.753906 0.53125 -8.140625 C 0.507812 -8.535156 0.476562 -8.921875 0.4375 -9.296875 C 0.40625 -9.679688 0.3125 -10.0625 0.15625 -10.4375 C 0.132812 -10.5 0.113281 -10.5625 0.09375 -10.625 C 0.0703125 -10.695312 0.0820312 -10.753906 0.125 -10.796875 C 0.1875 -10.878906 0.332031 -10.941406 0.5625 -10.984375 C 0.789062 -11.035156 1.023438 -11.066406 1.265625 -11.078125 C 1.503906 -11.097656 1.671875 -11.109375 1.765625 -11.109375 C 2.066406 -11.109375 2.367188 -11.09375 2.671875 -11.0625 C 2.972656 -11.03125 3.269531 -11.003906 3.5625 -10.984375 C 3.6875 -10.972656 3.8125 -10.96875 3.9375 -10.96875 C 4.070312 -10.96875 4.195312 -10.96875 4.3125 -10.96875 C 4.625 -10.96875 4.929688 -10.976562 5.234375 -11 C 5.546875 -11.019531 5.851562 -11.054688 6.15625 -11.109375 C 6.175781 -11.109375 6.203125 -11.109375 6.234375 -11.109375 C 6.273438 -11.109375 6.304688 -11.109375 6.328125 -11.109375 C 6.335938 -11.109375 6.347656 -11.109375 6.359375 -11.109375 C 6.367188 -11.109375 6.378906 -11.109375 6.390625 -11.109375 C 6.535156 -11.054688 6.625 -10.914062 6.65625 -10.6875 C 6.695312 -10.46875 6.722656 -10.296875 6.734375 -10.171875 C 6.742188 -9.992188 6.742188 -9.816406 6.734375 -9.640625 C 6.722656 -9.460938 6.695312 -9.296875 6.65625 -9.140625 Z M 6.65625 -9.140625 "/></g></g><g style="fill:#000000;fill-opacity:1;"><g transform="translate(16.149243, 22.429833)"><path style="stroke:none" d="M 6.734375 -9.140625 L 6.65625 -8.796875 C 6.625 -8.722656 6.59375 -8.65625 6.5625 -8.59375 C 6.53125 -8.53125 6.484375 -8.488281 6.421875 -8.46875 C 6.359375 -8.445312 6.300781 -8.4375 6.25 -8.4375 C 6.21875 -8.4375 6.1875 -8.4375 6.15625 -8.4375 C 6.125 -8.445312 6.085938 -8.457031 6.046875 -8.46875 C 5.796875 -8.539062 5.550781 -8.601562 5.3125 -8.65625 C 5.070312 -8.707031 4.828125 -8.742188 4.578125 -8.765625 C 4.210938 -8.765625 3.910156 -8.738281 3.671875 -8.6875 C 3.441406 -8.632812 3.269531 -8.507812 3.15625 -8.3125 C 3.039062 -8.125 2.984375 -7.828125 2.984375 -7.421875 C 3.003906 -7.253906 3.039062 -7.101562 3.09375 -6.96875 C 3.15625 -6.84375 3.289062 -6.78125 3.5 -6.78125 C 3.539062 -6.769531 3.582031 -6.765625 3.625 -6.765625 C 3.664062 -6.765625 3.707031 -6.765625 3.75 -6.765625 C 3.945312 -6.765625 4.140625 -6.785156 4.328125 -6.828125 C 4.523438 -6.878906 4.71875 -6.9375 4.90625 -7 C 4.96875 -7.019531 5.015625 -7.03125 5.046875 -7.03125 C 5.148438 -7.03125 5.222656 -6.929688 5.265625 -6.734375 C 5.316406 -6.515625 5.351562 -6.269531 5.375 -6 C 5.40625 -5.8125 5.410156 -5.628906 5.390625 -5.453125 C 5.378906 -5.273438 5.363281 -5.097656 5.34375 -4.921875 C 5.320312 -4.804688 5.300781 -4.664062 5.28125 -4.5 C 5.257812 -4.34375 5.164062 -4.257812 5 -4.25 C 4.957031 -4.25 4.910156 -4.253906 4.859375 -4.265625 C 4.816406 -4.273438 4.769531 -4.285156 4.71875 -4.296875 C 4.601562 -4.335938 4.484375 -4.367188 4.359375 -4.390625 C 4.242188 -4.421875 4.125 -4.4375 4 -4.4375 C 3.945312 -4.4375 3.894531 -4.429688 3.84375 -4.421875 C 3.800781 -4.421875 3.753906 -4.414062 3.703125 -4.40625 C 3.441406 -4.363281 3.257812 -4.238281 3.15625 -4.03125 C 3.050781 -3.832031 2.988281 -3.609375 2.96875 -3.359375 C 2.957031 -3.109375 2.953125 -2.867188 2.953125 -2.640625 C 2.921875 -1.828125 3.070312 -1.050781 3.40625 -0.3125 C 3.425781 -0.25 3.445312 -0.179688 3.46875 -0.109375 C 3.488281 -0.046875 3.472656 0.0078125 3.421875 0.0625 C 3.367188 0.132812 3.234375 0.191406 3.015625 0.234375 C 2.804688 0.273438 2.585938 0.300781 2.359375 0.3125 C 2.128906 0.320312 1.972656 0.328125 1.890625 0.328125 C 1.671875 0.328125 1.453125 0.316406 1.234375 0.296875 C 1.023438 0.285156 0.816406 0.253906 0.609375 0.203125 C 0.359375 0.148438 0.234375 0.0546875 0.234375 -0.078125 C 0.234375 -0.222656 0.257812 -0.394531 0.3125 -0.59375 C 0.363281 -0.820312 0.414062 -1.050781 0.46875 -1.28125 C 0.53125 -1.507812 0.566406 -1.742188 0.578125 -1.984375 C 0.597656 -2.316406 0.601562 -2.65625 0.59375 -3 C 0.59375 -3.34375 0.578125 -3.6875 0.546875 -4.03125 C 0.535156 -4.289062 0.492188 -4.539062 0.421875 -4.78125 C 0.359375 -5.03125 0.242188 -5.257812 0.078125 -5.46875 C 0.015625 -5.539062 -0.0078125 -5.601562 0 -5.65625 C 0 -5.664062 0.00390625 -5.675781 0.015625 -5.6875 C 0.0234375 -5.707031 0.0351562 -5.722656 0.046875 -5.734375 C 0.140625 -5.867188 0.222656 -6.003906 0.296875 -6.140625 C 0.367188 -6.285156 0.429688 -6.429688 0.484375 -6.578125 C 0.566406 -6.898438 0.601562 -7.222656 0.59375 -7.546875 C 0.59375 -7.867188 0.597656 -8.191406 0.609375 -8.515625 C 0.628906 -8.835938 0.601562 -9.164062 0.53125 -9.5 C 0.457031 -9.84375 0.359375 -10.15625 0.234375 -10.4375 C 0.210938 -10.5 0.191406 -10.5625 0.171875 -10.625 C 0.160156 -10.695312 0.171875 -10.753906 0.203125 -10.796875 C 0.273438 -10.878906 0.425781 -10.941406 0.65625 -10.984375 C 0.882812 -11.035156 1.117188 -11.066406 1.359375 -11.078125 C 1.597656 -11.097656 1.757812 -11.109375 1.84375 -11.109375 C 2.144531 -11.109375 2.445312 -11.09375 2.75 -11.0625 C 3.050781 -11.03125 3.351562 -11.003906 3.65625 -10.984375 C 3.78125 -10.972656 3.90625 -10.96875 4.03125 -10.96875 C 4.164062 -10.96875 4.289062 -10.96875 4.40625 -10.96875 C 4.71875 -10.96875 5.023438 -10.976562 5.328125 -11 C 5.640625 -11.019531 5.941406 -11.054688 6.234375 -11.109375 C 6.265625 -11.109375 6.296875 -11.109375 6.328125 -11.109375 C 6.359375 -11.109375 6.382812 -11.109375 6.40625 -11.109375 C 6.414062 -11.109375 6.425781 -11.109375 6.4375 -11.109375 C 6.457031 -11.109375 6.472656 -11.109375 6.484375 -11.109375 C 6.628906 -11.054688 6.71875 -10.914062 6.75 -10.6875 C 6.789062 -10.46875 6.816406 -10.296875 6.828125 -10.171875 C 6.835938 -9.992188 6.835938 -9.816406 6.828125 -9.640625 C 6.816406 -9.460938 6.785156 -9.296875 6.734375 -9.140625 Z M 6.734375 -9.140625 "/></g></g><g style="fill:#000000;fill-opacity:1;"><g transform="translate(23.844483, 22.429833)"><path style="stroke:none" d="M 5.296875 -0.234375 C 5.273438 -0.171875 5.253906 -0.132812 5.234375 -0.125 C 5.203125 -0.113281 5.15625 -0.101562 5.09375 -0.09375 C 5.03125 -0.0820312 4.984375 -0.078125 4.953125 -0.078125 C 4.941406 -0.078125 4.925781 -0.078125 4.90625 -0.078125 C 4.894531 -0.078125 4.875 -0.078125 4.84375 -0.078125 C 4.800781 -0.078125 4.757812 -0.078125 4.71875 -0.078125 C 4.675781 -0.078125 4.632812 -0.0859375 4.59375 -0.109375 C 4.4375 -0.128906 4.273438 -0.144531 4.109375 -0.15625 C 3.953125 -0.164062 3.796875 -0.171875 3.640625 -0.171875 C 3.554688 -0.171875 3.476562 -0.171875 3.40625 -0.171875 C 3.332031 -0.171875 3.253906 -0.164062 3.171875 -0.15625 C 2.941406 -0.144531 2.710938 -0.117188 2.484375 -0.078125 C 2.253906 -0.0351562 2.023438 -0.00390625 1.796875 0.015625 C 1.722656 0.0234375 1.644531 0.03125 1.5625 0.03125 C 1.488281 0.03125 1.414062 0.03125 1.34375 0.03125 C 1.0625 0.03125 0.773438 0.015625 0.484375 -0.015625 C 0.296875 -0.0351562 0.195312 -0.101562 0.1875 -0.21875 C 0.175781 -0.332031 0.175781 -0.460938 0.1875 -0.609375 C 0.207031 -0.785156 0.226562 -0.960938 0.25 -1.140625 C 0.28125 -1.316406 0.300781 -1.5 0.3125 -1.6875 C 0.332031 -2.039062 0.34375 -2.382812 0.34375 -2.71875 C 0.351562 -3.0625 0.347656 -3.410156 0.328125 -3.765625 C 0.316406 -4.109375 0.28125 -4.453125 0.21875 -4.796875 C 0.195312 -4.929688 0.160156 -5.070312 0.109375 -5.21875 C 0.0546875 -5.375 0.0351562 -5.523438 0.046875 -5.671875 C 0.0546875 -5.710938 0.0664062 -5.753906 0.078125 -5.796875 C 0.0976562 -5.835938 0.113281 -5.882812 0.125 -5.9375 C 0.226562 -6.300781 0.28125 -6.664062 0.28125 -7.03125 C 0.289062 -7.40625 0.269531 -7.773438 0.21875 -8.140625 C 0.1875 -8.503906 0.144531 -8.867188 0.09375 -9.234375 C 0.0507812 -9.609375 0.0195312 -9.984375 0 -10.359375 C -0.0078125 -10.535156 0.0078125 -10.695312 0.0625 -10.84375 C 0.113281 -11 0.226562 -11.101562 0.40625 -11.15625 C 0.675781 -11.226562 0.941406 -11.265625 1.203125 -11.265625 C 1.335938 -11.265625 1.472656 -11.257812 1.609375 -11.25 C 1.753906 -11.238281 1.90625 -11.21875 2.0625 -11.1875 C 2.144531 -11.175781 2.234375 -11.15625 2.328125 -11.125 C 2.429688 -11.101562 2.515625 -11.054688 2.578125 -10.984375 C 2.703125 -10.847656 2.734375 -10.691406 2.671875 -10.515625 C 2.617188 -10.335938 2.578125 -10.171875 2.546875 -10.015625 C 2.472656 -9.648438 2.4375 -9.257812 2.4375 -8.84375 C 2.425781 -8.457031 2.4375 -8.066406 2.46875 -7.671875 C 2.507812 -7.273438 2.570312 -6.878906 2.65625 -6.484375 L 2.765625 -5.953125 C 2.816406 -5.710938 2.804688 -5.476562 2.734375 -5.25 C 2.660156 -5.019531 2.597656 -4.789062 2.546875 -4.5625 C 2.460938 -4.019531 2.460938 -3.484375 2.546875 -2.953125 C 2.578125 -2.828125 2.648438 -2.738281 2.765625 -2.6875 C 2.890625 -2.644531 3.007812 -2.617188 3.125 -2.609375 C 3.164062 -2.597656 3.207031 -2.59375 3.25 -2.59375 C 3.289062 -2.59375 3.332031 -2.59375 3.375 -2.59375 L 3.78125 -2.59375 C 3.914062 -2.613281 4.046875 -2.632812 4.171875 -2.65625 C 4.296875 -2.675781 4.421875 -2.695312 4.546875 -2.71875 C 4.597656 -2.738281 4.664062 -2.753906 4.75 -2.765625 C 4.84375 -2.785156 4.925781 -2.796875 5 -2.796875 C 5.207031 -2.796875 5.3125 -2.691406 5.3125 -2.484375 C 5.375 -2.222656 5.414062 -1.953125 5.4375 -1.671875 C 5.46875 -1.398438 5.46875 -1.132812 5.4375 -0.875 C 5.425781 -0.789062 5.40625 -0.679688 5.375 -0.546875 C 5.351562 -0.410156 5.328125 -0.304688 5.296875 -0.234375 Z M 5.296875 -0.234375 "/></g></g><g style="fill:#000000;fill-opacity:1;"><g transform="translate(30.168635, 22.429833)"><path style="stroke:none" d="M 6.65625 -9.140625 L 6.5625 -8.796875 C 6.539062 -8.722656 6.507812 -8.65625 6.46875 -8.59375 C 6.4375 -8.53125 6.394531 -8.488281 6.34375 -8.46875 C 6.269531 -8.445312 6.210938 -8.4375 6.171875 -8.4375 C 6.140625 -8.4375 6.101562 -8.4375 6.0625 -8.4375 C 6.03125 -8.445312 6 -8.457031 5.96875 -8.46875 C 5.71875 -8.539062 5.472656 -8.601562 5.234375 -8.65625 C 4.992188 -8.707031 4.742188 -8.742188 4.484375 -8.765625 C 4.296875 -8.765625 4.082031 -8.75 3.84375 -8.71875 C 3.601562 -8.6875 3.390625 -8.613281 3.203125 -8.5 C 3.023438 -8.382812 2.925781 -8.195312 2.90625 -7.9375 C 2.90625 -7.59375 2.953125 -7.3125 3.046875 -7.09375 C 3.140625 -6.875 3.378906 -6.765625 3.765625 -6.765625 C 3.890625 -6.765625 4.046875 -6.78125 4.234375 -6.8125 C 4.421875 -6.851562 4.566406 -6.894531 4.671875 -6.9375 C 4.722656 -6.945312 4.765625 -6.953125 4.796875 -6.953125 C 4.828125 -6.960938 4.859375 -6.96875 4.890625 -6.96875 C 5.078125 -6.96875 5.191406 -6.875 5.234375 -6.6875 C 5.273438 -6.5 5.304688 -6.3125 5.328125 -6.125 C 5.347656 -5.851562 5.347656 -5.582031 5.328125 -5.3125 C 5.304688 -5.039062 5.265625 -4.773438 5.203125 -4.515625 L 5.15625 -4.390625 C 5.132812 -4.335938 5.097656 -4.300781 5.046875 -4.28125 C 5.003906 -4.269531 4.960938 -4.257812 4.921875 -4.25 C 4.867188 -4.25 4.820312 -4.253906 4.78125 -4.265625 C 4.738281 -4.273438 4.6875 -4.285156 4.625 -4.296875 C 4.507812 -4.335938 4.390625 -4.367188 4.265625 -4.390625 C 4.148438 -4.421875 4.03125 -4.4375 3.90625 -4.4375 C 3.738281 -4.4375 3.566406 -4.40625 3.390625 -4.34375 C 3.222656 -4.28125 3.097656 -4.171875 3.015625 -4.015625 C 2.960938 -3.878906 2.929688 -3.738281 2.921875 -3.59375 C 2.910156 -3.445312 2.925781 -3.304688 2.96875 -3.171875 C 2.988281 -3.097656 3.007812 -3.03125 3.03125 -2.96875 C 3.050781 -2.914062 3.085938 -2.867188 3.140625 -2.828125 C 3.191406 -2.773438 3.265625 -2.738281 3.359375 -2.71875 C 3.453125 -2.695312 3.535156 -2.679688 3.609375 -2.671875 C 4.117188 -2.671875 4.566406 -2.691406 4.953125 -2.734375 C 5.335938 -2.773438 5.78125 -2.878906 6.28125 -3.046875 C 6.320312 -3.054688 6.363281 -3.066406 6.40625 -3.078125 C 6.445312 -3.097656 6.488281 -3.109375 6.53125 -3.109375 C 6.65625 -3.085938 6.753906 -3.019531 6.828125 -2.90625 C 6.898438 -2.800781 6.941406 -2.691406 6.953125 -2.578125 C 7.117188 -2.046875 7.15625 -1.5 7.0625 -0.9375 C 7.050781 -0.695312 7 -0.476562 6.90625 -0.28125 C 6.8125 -0.0820312 6.617188 0.015625 6.328125 0.015625 C 6.242188 0.015625 6.15625 0.0078125 6.0625 0 C 5.976562 -0.0078125 5.890625 -0.0195312 5.796875 -0.03125 C 5.359375 -0.0820312 4.921875 -0.117188 4.484375 -0.140625 C 4.046875 -0.171875 3.609375 -0.1875 3.171875 -0.1875 C 2.722656 -0.1875 2.273438 -0.164062 1.828125 -0.125 C 1.390625 -0.09375 0.953125 -0.0351562 0.515625 0.046875 C 0.492188 0.0546875 0.460938 0.0664062 0.421875 0.078125 C 0.378906 0.0976562 0.335938 0.109375 0.296875 0.109375 C 0.210938 0.109375 0.15625 0.0664062 0.125 -0.015625 C 0.09375 -0.046875 0.09375 -0.101562 0.125 -0.1875 C 0.195312 -0.488281 0.269531 -0.785156 0.34375 -1.078125 C 0.425781 -1.378906 0.476562 -1.679688 0.5 -1.984375 C 0.519531 -2.316406 0.523438 -2.65625 0.515625 -3 C 0.515625 -3.34375 0.5 -3.6875 0.46875 -4.03125 C 0.457031 -4.269531 0.421875 -4.503906 0.359375 -4.734375 C 0.304688 -4.960938 0.210938 -5.1875 0.078125 -5.40625 C 0.0664062 -5.4375 0.0507812 -5.460938 0.03125 -5.484375 C 0.0078125 -5.515625 0 -5.550781 0 -5.59375 C -0.0078125 -5.644531 -0.00390625 -5.691406 0.015625 -5.734375 C 0.0351562 -5.773438 0.0546875 -5.816406 0.078125 -5.859375 C 0.273438 -6.210938 0.40625 -6.582031 0.46875 -6.96875 C 0.539062 -7.363281 0.5625 -7.753906 0.53125 -8.140625 C 0.507812 -8.535156 0.476562 -8.921875 0.4375 -9.296875 C 0.40625 -9.679688 0.3125 -10.0625 0.15625 -10.4375 C 0.132812 -10.5 0.113281 -10.5625 0.09375 -10.625 C 0.0703125 -10.695312 0.0820312 -10.753906 0.125 -10.796875 C 0.1875 -10.878906 0.332031 -10.941406 0.5625 -10.984375 C 0.789062 -11.035156 1.023438 -11.066406 1.265625 -11.078125 C 1.503906 -11.097656 1.671875 -11.109375 1.765625 -11.109375 C 2.066406 -11.109375 2.367188 -11.09375 2.671875 -11.0625 C 2.972656 -11.03125 3.269531 -11.003906 3.5625 -10.984375 C 3.6875 -10.972656 3.8125 -10.96875 3.9375 -10.96875 C 4.070312 -10.96875 4.195312 -10.96875 4.3125 -10.96875 C 4.625 -10.96875 4.929688 -10.976562 5.234375 -11 C 5.546875 -11.019531 5.851562 -11.054688 6.15625 -11.109375 C 6.175781 -11.109375 6.203125 -11.109375 6.234375 -11.109375 C 6.273438 -11.109375 6.304688 -11.109375 6.328125 -11.109375 C 6.335938 -11.109375 6.347656 -11.109375 6.359375 -11.109375 C 6.367188 -11.109375 6.378906 -11.109375 6.390625 -11.109375 C 6.535156 -11.054688 6.625 -10.914062 6.65625 -10.6875 C 6.695312 -10.46875 6.722656 -10.296875 6.734375 -10.171875 C 6.742188 -9.992188 6.742188 -9.816406 6.734375 -9.640625 C 6.722656 -9.460938 6.695312 -9.296875 6.65625 -9.140625 Z M 6.65625 -9.140625 "/></g></g><g style="fill:#000000;fill-opacity:1;"><g transform="translate(38.138093, 22.429833)"><path style="stroke:none" d="M 8.015625 -3.765625 C 7.921875 -3.546875 7.835938 -3.332031 7.765625 -3.125 C 7.703125 -2.914062 7.632812 -2.695312 7.5625 -2.46875 C 7.476562 -2.226562 7.375 -2 7.25 -1.78125 C 7.132812 -1.570312 7.003906 -1.375 6.859375 -1.1875 C 6.523438 -0.75 6.179688 -0.4375 5.828125 -0.25 C 5.484375 -0.0625 5.03125 0.03125 4.46875 0.03125 C 3.707031 0.03125 3.023438 -0.179688 2.421875 -0.609375 C 1.828125 -1.046875 1.363281 -1.601562 1.03125 -2.28125 C 0.914062 -2.53125 0.828125 -2.78125 0.765625 -3.03125 C 0.703125 -3.289062 0.625 -3.550781 0.53125 -3.8125 C 0.4375 -4.0625 0.359375 -4.3125 0.296875 -4.5625 C 0.242188 -4.8125 0.160156 -5.054688 0.046875 -5.296875 C 0.015625 -5.347656 0 -5.398438 0 -5.453125 C 0 -5.503906 0.0195312 -5.566406 0.0625 -5.640625 C 0.25 -5.960938 0.367188 -6.285156 0.421875 -6.609375 C 0.484375 -6.941406 0.539062 -7.285156 0.59375 -7.640625 C 0.695312 -8.242188 0.9375 -8.800781 1.3125 -9.3125 C 1.695312 -9.820312 2.164062 -10.226562 2.71875 -10.53125 C 3.269531 -10.84375 3.851562 -11 4.46875 -11 C 4.789062 -11 5.09375 -10.96875 5.375 -10.90625 C 5.882812 -10.71875 6.28125 -10.460938 6.5625 -10.140625 C 6.851562 -9.816406 7.140625 -9.425781 7.421875 -8.96875 C 7.515625 -8.8125 7.601562 -8.660156 7.6875 -8.515625 C 7.769531 -8.367188 7.867188 -8.234375 7.984375 -8.109375 C 8.046875 -8.054688 8.097656 -8.003906 8.140625 -7.953125 C 8.179688 -7.910156 8.21875 -7.851562 8.25 -7.78125 C 8.300781 -7.65625 8.285156 -7.535156 8.203125 -7.421875 C 8.128906 -7.316406 8.03125 -7.222656 7.90625 -7.140625 C 7.78125 -7.066406 7.675781 -7.003906 7.59375 -6.953125 C 7.269531 -6.804688 6.953125 -6.6875 6.640625 -6.59375 C 6.335938 -6.507812 6.007812 -6.46875 5.65625 -6.46875 C 5.613281 -6.46875 5.5625 -6.472656 5.5 -6.484375 C 5.4375 -6.492188 5.390625 -6.519531 5.359375 -6.5625 C 5.335938 -6.613281 5.328125 -6.660156 5.328125 -6.703125 C 5.328125 -6.753906 5.332031 -6.804688 5.34375 -6.859375 C 5.363281 -7.015625 5.359375 -7.171875 5.328125 -7.328125 C 5.304688 -7.492188 5.257812 -7.644531 5.1875 -7.78125 C 5.113281 -7.9375 5 -8.113281 4.84375 -8.3125 C 4.6875 -8.507812 4.519531 -8.613281 4.34375 -8.625 C 4.050781 -8.625 3.832031 -8.503906 3.6875 -8.265625 C 3.539062 -8.023438 3.421875 -7.789062 3.328125 -7.5625 C 3.210938 -7.269531 3.160156 -6.960938 3.171875 -6.640625 C 3.191406 -6.328125 3.273438 -6.035156 3.421875 -5.765625 C 3.453125 -5.710938 3.46875 -5.664062 3.46875 -5.625 C 3.46875 -5.601562 3.453125 -5.566406 3.421875 -5.515625 C 3.171875 -5.066406 3.066406 -4.59375 3.109375 -4.09375 C 3.128906 -3.84375 3.195312 -3.597656 3.3125 -3.359375 C 3.4375 -3.128906 3.570312 -2.914062 3.71875 -2.71875 C 3.800781 -2.601562 3.882812 -2.507812 3.96875 -2.4375 C 4.0625 -2.375 4.1875 -2.34375 4.34375 -2.34375 C 4.507812 -2.363281 4.660156 -2.453125 4.796875 -2.609375 C 4.941406 -2.773438 5.066406 -2.960938 5.171875 -3.171875 C 5.273438 -3.378906 5.335938 -3.5625 5.359375 -3.71875 C 5.367188 -3.820312 5.363281 -3.914062 5.34375 -4 C 5.332031 -4.09375 5.328125 -4.1875 5.328125 -4.28125 C 5.328125 -4.40625 5.394531 -4.492188 5.53125 -4.546875 C 5.664062 -4.609375 5.816406 -4.648438 5.984375 -4.671875 C 6.160156 -4.691406 6.289062 -4.703125 6.375 -4.703125 C 6.445312 -4.710938 6.515625 -4.71875 6.578125 -4.71875 C 6.640625 -4.71875 6.703125 -4.71875 6.765625 -4.71875 C 6.859375 -4.71875 7.015625 -4.707031 7.234375 -4.6875 C 7.460938 -4.664062 7.675781 -4.628906 7.875 -4.578125 C 8.082031 -4.535156 8.203125 -4.457031 8.234375 -4.34375 C 8.253906 -4.269531 8.25 -4.203125 8.21875 -4.140625 C 8.1875 -4.078125 8.15625 -4.015625 8.125 -3.953125 Z M 8.015625 -3.765625 "/></g></g><g style="fill:#000000;fill-opacity:1;"><g transform="translate(47.272973, 22.429833)"><path style="stroke:none" d="M 6.046875 -11.140625 L 6.1875 -11.140625 C 6.21875 -11.140625 6.25 -11.128906 6.28125 -11.109375 C 6.332031 -11.097656 6.367188 -11.0625 6.390625 -11 C 6.410156 -10.945312 6.425781 -10.890625 6.4375 -10.828125 C 6.457031 -10.753906 6.46875 -10.675781 6.46875 -10.59375 C 6.46875 -10.519531 6.46875 -10.445312 6.46875 -10.375 C 6.476562 -10.289062 6.484375 -10.207031 6.484375 -10.125 C 6.484375 -10.039062 6.484375 -9.953125 6.484375 -9.859375 C 6.492188 -9.671875 6.488281 -9.484375 6.46875 -9.296875 C 6.445312 -9.109375 6.421875 -8.914062 6.390625 -8.71875 C 6.378906 -8.601562 6.347656 -8.507812 6.296875 -8.4375 C 6.253906 -8.363281 6.171875 -8.328125 6.046875 -8.328125 C 6.003906 -8.328125 5.960938 -8.328125 5.921875 -8.328125 C 5.878906 -8.335938 5.835938 -8.347656 5.796875 -8.359375 C 5.628906 -8.410156 5.515625 -8.445312 5.453125 -8.46875 C 5.398438 -8.5 5.289062 -8.515625 5.125 -8.515625 C 5.039062 -8.515625 4.953125 -8.503906 4.859375 -8.484375 C 4.773438 -8.472656 4.703125 -8.4375 4.640625 -8.375 C 4.585938 -8.332031 4.546875 -8.273438 4.515625 -8.203125 C 4.484375 -8.140625 4.457031 -8.066406 4.4375 -7.984375 C 4.257812 -7.234375 4.328125 -6.507812 4.640625 -5.8125 C 4.679688 -5.757812 4.703125 -5.703125 4.703125 -5.640625 C 4.703125 -5.617188 4.695312 -5.59375 4.6875 -5.5625 C 4.675781 -5.539062 4.664062 -5.519531 4.65625 -5.5 C 4.414062 -4.90625 4.289062 -4.300781 4.28125 -3.6875 C 4.28125 -3.082031 4.28125 -2.460938 4.28125 -1.828125 C 4.289062 -1.671875 4.300781 -1.503906 4.3125 -1.328125 C 4.332031 -1.160156 4.347656 -1 4.359375 -0.84375 C 4.367188 -0.757812 4.378906 -0.675781 4.390625 -0.59375 C 4.398438 -0.519531 4.410156 -0.4375 4.421875 -0.34375 C 4.429688 -0.300781 4.445312 -0.238281 4.46875 -0.15625 C 4.5 -0.0820312 4.492188 -0.0195312 4.453125 0.03125 C 4.441406 0.0820312 4.410156 0.113281 4.359375 0.125 C 4.316406 0.132812 4.273438 0.140625 4.234375 0.140625 C 4.023438 0.148438 3.820312 0.15625 3.625 0.15625 C 3.425781 0.164062 3.226562 0.171875 3.03125 0.171875 C 2.6875 0.171875 2.34375 0.15625 2 0.125 C 1.882812 0.09375 1.816406 0.0234375 1.796875 -0.078125 C 1.773438 -0.179688 1.773438 -0.300781 1.796875 -0.4375 C 1.828125 -0.570312 1.84375 -0.675781 1.84375 -0.75 C 1.875 -0.945312 1.90625 -1.140625 1.9375 -1.328125 C 1.96875 -1.515625 1.988281 -1.703125 2 -1.890625 C 2.0625 -2.441406 2.0625 -3 2 -3.5625 C 1.945312 -4.125 1.84375 -4.664062 1.6875 -5.1875 C 1.664062 -5.257812 1.644531 -5.328125 1.625 -5.390625 C 1.601562 -5.460938 1.59375 -5.535156 1.59375 -5.609375 C 1.601562 -5.742188 1.644531 -5.867188 1.71875 -5.984375 C 1.789062 -6.109375 1.84375 -6.238281 1.875 -6.375 C 1.894531 -6.53125 1.910156 -6.6875 1.921875 -6.84375 C 1.941406 -7 1.945312 -7.148438 1.9375 -7.296875 C 1.9375 -7.492188 1.925781 -7.679688 1.90625 -7.859375 C 1.882812 -8.035156 1.820312 -8.179688 1.71875 -8.296875 C 1.625 -8.410156 1.453125 -8.46875 1.203125 -8.46875 C 1.097656 -8.46875 0.992188 -8.457031 0.890625 -8.4375 C 0.796875 -8.425781 0.710938 -8.40625 0.640625 -8.375 C 0.585938 -8.363281 0.53125 -8.34375 0.46875 -8.3125 C 0.40625 -8.289062 0.347656 -8.28125 0.296875 -8.28125 C 0.285156 -8.28125 0.273438 -8.28125 0.265625 -8.28125 C 0.253906 -8.28125 0.242188 -8.28125 0.234375 -8.28125 C 0.191406 -8.300781 0.160156 -8.335938 0.140625 -8.390625 C 0.117188 -8.441406 0.0976562 -8.488281 0.078125 -8.53125 C 0.0351562 -8.894531 0.0078125 -9.257812 0 -9.625 C 0 -9.988281 0.0351562 -10.347656 0.109375 -10.703125 C 0.117188 -10.734375 0.128906 -10.765625 0.140625 -10.796875 C 0.148438 -10.835938 0.164062 -10.878906 0.1875 -10.921875 C 0.21875 -10.972656 0.265625 -11.007812 0.328125 -11.03125 C 0.390625 -11.050781 0.453125 -11.066406 0.515625 -11.078125 C 0.546875 -11.085938 0.582031 -11.09375 0.625 -11.09375 C 0.664062 -11.09375 0.703125 -11.09375 0.734375 -11.09375 C 0.828125 -11.09375 0.914062 -11.085938 1 -11.078125 C 1.09375 -11.066406 1.179688 -11.050781 1.265625 -11.03125 C 1.597656 -10.988281 1.867188 -10.953125 2.078125 -10.921875 C 2.296875 -10.898438 2.539062 -10.890625 2.8125 -10.890625 C 2.863281 -10.890625 2.925781 -10.890625 3 -10.890625 C 3.070312 -10.898438 3.140625 -10.90625 3.203125 -10.90625 C 3.285156 -10.90625 3.359375 -10.90625 3.421875 -10.90625 C 3.492188 -10.90625 3.570312 -10.90625 3.65625 -10.90625 C 3.6875 -10.90625 3.71875 -10.90625 3.75 -10.90625 C 3.789062 -10.90625 3.828125 -10.90625 3.859375 -10.90625 L 4.59375 -10.96875 C 4.832031 -11 5.070312 -11.03125 5.3125 -11.0625 C 5.550781 -11.09375 5.796875 -11.117188 6.046875 -11.140625 Z M 6.046875 -11.140625 "/></g></g><g style="fill:#000000;fill-opacity:1;"><g transform="translate(54.471186, 22.429833)"><path style="stroke:none" d="M 3 -0.28125 C 2.925781 -0.207031 2.789062 -0.148438 2.59375 -0.109375 C 2.40625 -0.0664062 2.207031 -0.0390625 2 -0.03125 C 1.800781 -0.0195312 1.648438 -0.015625 1.546875 -0.015625 C 1.441406 -0.015625 1.332031 -0.015625 1.21875 -0.015625 C 1.113281 -0.015625 1.003906 -0.0195312 0.890625 -0.03125 C 0.722656 -0.03125 0.566406 -0.0546875 0.421875 -0.109375 C 0.265625 -0.140625 0.148438 -0.226562 0.078125 -0.375 C 0.0234375 -0.5 0.015625 -0.648438 0.046875 -0.828125 C 0.0664062 -0.972656 0.09375 -1.113281 0.125 -1.25 C 0.164062 -1.394531 0.203125 -1.546875 0.234375 -1.703125 C 0.359375 -2.296875 0.398438 -2.890625 0.359375 -3.484375 C 0.316406 -4.085938 0.207031 -4.679688 0.03125 -5.265625 C 0.0078125 -5.328125 0 -5.382812 0 -5.4375 C 0 -5.539062 0.0234375 -5.648438 0.078125 -5.765625 C 0.210938 -6.128906 0.304688 -6.5 0.359375 -6.875 C 0.421875 -7.25 0.441406 -7.628906 0.421875 -8.015625 C 0.421875 -8.273438 0.410156 -8.523438 0.390625 -8.765625 C 0.367188 -9.015625 0.335938 -9.265625 0.296875 -9.515625 C 0.285156 -9.640625 0.265625 -9.757812 0.234375 -9.875 C 0.203125 -10 0.179688 -10.117188 0.171875 -10.234375 C 0.160156 -10.316406 0.148438 -10.40625 0.140625 -10.5 C 0.140625 -10.59375 0.15625 -10.675781 0.1875 -10.75 C 0.257812 -10.851562 0.382812 -10.925781 0.5625 -10.96875 C 0.75 -11.007812 0.9375 -11.035156 1.125 -11.046875 C 1.320312 -11.066406 1.472656 -11.078125 1.578125 -11.078125 C 1.628906 -11.078125 1.738281 -11.066406 1.90625 -11.046875 C 2.082031 -11.035156 2.269531 -11.019531 2.46875 -11 C 2.664062 -10.988281 2.835938 -10.96875 2.984375 -10.9375 C 3.140625 -10.90625 3.226562 -10.859375 3.25 -10.796875 C 3.320312 -10.679688 3.320312 -10.535156 3.25 -10.359375 C 3.175781 -10.191406 3.117188 -10.046875 3.078125 -9.921875 C 3.023438 -9.734375 2.976562 -9.53125 2.9375 -9.3125 C 2.894531 -9.101562 2.863281 -8.890625 2.84375 -8.671875 C 2.800781 -8.179688 2.796875 -7.664062 2.828125 -7.125 C 2.867188 -6.59375 3 -6.109375 3.21875 -5.671875 C 3.238281 -5.628906 3.242188 -5.582031 3.234375 -5.53125 C 3.234375 -5.476562 3.222656 -5.421875 3.203125 -5.359375 C 3.085938 -4.992188 3 -4.691406 2.9375 -4.453125 C 2.882812 -4.222656 2.859375 -3.910156 2.859375 -3.515625 C 2.859375 -3.285156 2.867188 -3.050781 2.890625 -2.8125 C 2.921875 -2.570312 2.945312 -2.335938 2.96875 -2.109375 C 2.988281 -1.890625 3.003906 -1.671875 3.015625 -1.453125 C 3.035156 -1.242188 3.054688 -1.03125 3.078125 -0.8125 C 3.109375 -0.71875 3.113281 -0.617188 3.09375 -0.515625 C 3.082031 -0.410156 3.050781 -0.332031 3 -0.28125 Z M 3 -0.28125 "/></g></g><g style="fill:#000000;fill-opacity:1;"><g transform="translate(58.635872, 22.429833)"><path style="stroke:none" d="M 7.828125 -11.078125 C 7.953125 -11.046875 8.0625 -11.015625 8.15625 -10.984375 C 8.257812 -10.953125 8.316406 -10.859375 8.328125 -10.703125 C 8.328125 -10.546875 8.304688 -10.394531 8.265625 -10.25 C 8.222656 -10.113281 8.179688 -9.976562 8.140625 -9.84375 C 7.890625 -9.238281 7.65625 -8.554688 7.4375 -7.796875 C 7.226562 -7.046875 7.117188 -6.34375 7.109375 -5.6875 C 7.097656 -5.570312 7.070312 -5.484375 7.03125 -5.421875 C 6.988281 -5.359375 6.941406 -5.28125 6.890625 -5.1875 C 6.546875 -4.664062 6.257812 -4.101562 6.03125 -3.5 C 5.8125 -2.90625 5.671875 -2.285156 5.609375 -1.640625 C 5.597656 -1.515625 5.585938 -1.378906 5.578125 -1.234375 C 5.578125 -1.085938 5.585938 -0.953125 5.609375 -0.828125 C 5.648438 -0.640625 5.65625 -0.46875 5.625 -0.3125 C 5.601562 -0.15625 5.476562 -0.0664062 5.25 -0.046875 C 5.0625 -0.0351562 4.878906 -0.0234375 4.703125 -0.015625 C 4.523438 -0.015625 4.347656 -0.015625 4.171875 -0.015625 C 4.046875 -0.015625 3.914062 -0.015625 3.78125 -0.015625 C 3.644531 -0.0234375 3.515625 -0.03125 3.390625 -0.03125 C 3.285156 -0.03125 3.1875 -0.03125 3.09375 -0.03125 C 3 -0.0390625 2.90625 -0.0507812 2.8125 -0.0625 C 2.675781 -0.09375 2.601562 -0.179688 2.59375 -0.328125 C 2.582031 -0.472656 2.582031 -0.597656 2.59375 -0.703125 C 2.625 -1.097656 2.617188 -1.5 2.578125 -1.90625 C 2.535156 -2.320312 2.46875 -2.734375 2.375 -3.140625 C 2.34375 -3.359375 2.253906 -3.613281 2.109375 -3.90625 C 1.972656 -4.195312 1.816406 -4.484375 1.640625 -4.765625 C 1.460938 -5.046875 1.296875 -5.273438 1.140625 -5.453125 C 1.097656 -5.492188 1.078125 -5.535156 1.078125 -5.578125 C 1.066406 -5.609375 1.066406 -5.640625 1.078125 -5.671875 C 1.140625 -6.285156 1.09375 -6.882812 0.9375 -7.46875 C 0.789062 -8.0625 0.613281 -8.644531 0.40625 -9.21875 L 0.1875 -9.84375 C 0.144531 -9.976562 0.101562 -10.113281 0.0625 -10.25 C 0.0195312 -10.394531 0 -10.546875 0 -10.703125 C 0 -10.859375 0.046875 -10.953125 0.140625 -10.984375 C 0.242188 -11.015625 0.359375 -11.046875 0.484375 -11.078125 C 0.628906 -11.097656 0.769531 -11.113281 0.90625 -11.125 C 1.039062 -11.132812 1.1875 -11.140625 1.34375 -11.140625 C 1.425781 -11.140625 1.546875 -11.132812 1.703125 -11.125 C 1.867188 -11.113281 2.03125 -11.09375 2.1875 -11.0625 C 2.351562 -11.039062 2.46875 -11.007812 2.53125 -10.96875 C 2.632812 -10.882812 2.6875 -10.773438 2.6875 -10.640625 C 2.695312 -10.515625 2.707031 -10.394531 2.71875 -10.28125 C 2.757812 -9.53125 2.878906 -8.796875 3.078125 -8.078125 C 3.285156 -7.359375 3.515625 -6.644531 3.765625 -5.9375 L 4.171875 -4.9375 L 4.5625 -5.9375 C 4.75 -6.488281 4.925781 -7.035156 5.09375 -7.578125 C 5.269531 -8.128906 5.40625 -8.703125 5.5 -9.296875 L 5.609375 -10.28125 C 5.617188 -10.394531 5.625 -10.515625 5.625 -10.640625 C 5.625 -10.773438 5.679688 -10.882812 5.796875 -10.96875 C 5.847656 -11.007812 5.957031 -11.039062 6.125 -11.0625 C 6.289062 -11.09375 6.457031 -11.113281 6.625 -11.125 C 6.789062 -11.132812 6.90625 -11.140625 6.96875 -11.140625 C 7.125 -11.140625 7.269531 -11.132812 7.40625 -11.125 C 7.550781 -11.113281 7.691406 -11.097656 7.828125 -11.078125 Z M 7.828125 -11.078125 "/></g></g><g style="fill:#000000;fill-opacity:1;"><g transform="translate(67.822172, 22.429833)"><path style="stroke:none" d="M 6.65625 -9.140625 L 6.5625 -8.796875 C 6.539062 -8.722656 6.507812 -8.65625 6.46875 -8.59375 C 6.4375 -8.53125 6.394531 -8.488281 6.34375 -8.46875 C 6.269531 -8.445312 6.210938 -8.4375 6.171875 -8.4375 C 6.140625 -8.4375 6.101562 -8.4375 6.0625 -8.4375 C 6.03125 -8.445312 6 -8.457031 5.96875 -8.46875 C 5.71875 -8.539062 5.472656 -8.601562 5.234375 -8.65625 C 4.992188 -8.707031 4.742188 -8.742188 4.484375 -8.765625 C 4.296875 -8.765625 4.082031 -8.75 3.84375 -8.71875 C 3.601562 -8.6875 3.390625 -8.613281 3.203125 -8.5 C 3.023438 -8.382812 2.925781 -8.195312 2.90625 -7.9375 C 2.90625 -7.59375 2.953125 -7.3125 3.046875 -7.09375 C 3.140625 -6.875 3.378906 -6.765625 3.765625 -6.765625 C 3.890625 -6.765625 4.046875 -6.78125 4.234375 -6.8125 C 4.421875 -6.851562 4.566406 -6.894531 4.671875 -6.9375 C 4.722656 -6.945312 4.765625 -6.953125 4.796875 -6.953125 C 4.828125 -6.960938 4.859375 -6.96875 4.890625 -6.96875 C 5.078125 -6.96875 5.191406 -6.875 5.234375 -6.6875 C 5.273438 -6.5 5.304688 -6.3125 5.328125 -6.125 C 5.347656 -5.851562 5.347656 -5.582031 5.328125 -5.3125 C 5.304688 -5.039062 5.265625 -4.773438 5.203125 -4.515625 L 5.15625 -4.390625 C 5.132812 -4.335938 5.097656 -4.300781 5.046875 -4.28125 C 5.003906 -4.269531 4.960938 -4.257812 4.921875 -4.25 C 4.867188 -4.25 4.820312 -4.253906 4.78125 -4.265625 C 4.738281 -4.273438 4.6875 -4.285156 4.625 -4.296875 C 4.507812 -4.335938 4.390625 -4.367188 4.265625 -4.390625 C 4.148438 -4.421875 4.03125 -4.4375 3.90625 -4.4375 C 3.738281 -4.4375 3.566406 -4.40625 3.390625 -4.34375 C 3.222656 -4.28125 3.097656 -4.171875 3.015625 -4.015625 C 2.960938 -3.878906 2.929688 -3.738281 2.921875 -3.59375 C 2.910156 -3.445312 2.925781 -3.304688 2.96875 -3.171875 C 2.988281 -3.097656 3.007812 -3.03125 3.03125 -2.96875 C 3.050781 -2.914062 3.085938 -2.867188 3.140625 -2.828125 C 3.191406 -2.773438 3.265625 -2.738281 3.359375 -2.71875 C 3.453125 -2.695312 3.535156 -2.679688 3.609375 -2.671875 C 4.117188 -2.671875 4.566406 -2.691406 4.953125 -2.734375 C 5.335938 -2.773438 5.78125 -2.878906 6.28125 -3.046875 C 6.320312 -3.054688 6.363281 -3.066406 6.40625 -3.078125 C 6.445312 -3.097656 6.488281 -3.109375 6.53125 -3.109375 C 6.65625 -3.085938 6.753906 -3.019531 6.828125 -2.90625 C 6.898438 -2.800781 6.941406 -2.691406 6.953125 -2.578125 C 7.117188 -2.046875 7.15625 -1.5 7.0625 -0.9375 C 7.050781 -0.695312 7 -0.476562 6.90625 -0.28125 C 6.8125 -0.0820312 6.617188 0.015625 6.328125 0.015625 C 6.242188 0.015625 6.15625 0.0078125 6.0625 0 C 5.976562 -0.0078125 5.890625 -0.0195312 5.796875 -0.03125 C 5.359375 -0.0820312 4.921875 -0.117188 4.484375 -0.140625 C 4.046875 -0.171875 3.609375 -0.1875 3.171875 -0.1875 C 2.722656 -0.1875 2.273438 -0.164062 1.828125 -0.125 C 1.390625 -0.09375 0.953125 -0.0351562 0.515625 0.046875 C 0.492188 0.0546875 0.460938 0.0664062 0.421875 0.078125 C 0.378906 0.0976562 0.335938 0.109375 0.296875 0.109375 C 0.210938 0.109375 0.15625 0.0664062 0.125 -0.015625 C 0.09375 -0.046875 0.09375 -0.101562 0.125 -0.1875 C 0.195312 -0.488281 0.269531 -0.785156 0.34375 -1.078125 C 0.425781 -1.378906 0.476562 -1.679688 0.5 -1.984375 C 0.519531 -2.316406 0.523438 -2.65625 0.515625 -3 C 0.515625 -3.34375 0.5 -3.6875 0.46875 -4.03125 C 0.457031 -4.269531 0.421875 -4.503906 0.359375 -4.734375 C 0.304688 -4.960938 0.210938 -5.1875 0.078125 -5.40625 C 0.0664062 -5.4375 0.0507812 -5.460938 0.03125 -5.484375 C 0.0078125 -5.515625 0 -5.550781 0 -5.59375 C -0.0078125 -5.644531 -0.00390625 -5.691406 0.015625 -5.734375 C 0.0351562 -5.773438 0.0546875 -5.816406 0.078125 -5.859375 C 0.273438 -6.210938 0.40625 -6.582031 0.46875 -6.96875 C 0.539062 -7.363281 0.5625 -7.753906 0.53125 -8.140625 C 0.507812 -8.535156 0.476562 -8.921875 0.4375 -9.296875 C 0.40625 -9.679688 0.3125 -10.0625 0.15625 -10.4375 C 0.132812 -10.5 0.113281 -10.5625 0.09375 -10.625 C 0.0703125 -10.695312 0.0820312 -10.753906 0.125 -10.796875 C 0.1875 -10.878906 0.332031 -10.941406 0.5625 -10.984375 C 0.789062 -11.035156 1.023438 -11.066406 1.265625 -11.078125 C 1.503906 -11.097656 1.671875 -11.109375 1.765625 -11.109375 C 2.066406 -11.109375 2.367188 -11.09375 2.671875 -11.0625 C 2.972656 -11.03125 3.269531 -11.003906 3.5625 -10.984375 C 3.6875 -10.972656 3.8125 -10.96875 3.9375 -10.96875 C 4.070312 -10.96875 4.195312 -10.96875 4.3125 -10.96875 C 4.625 -10.96875 4.929688 -10.976562 5.234375 -11 C 5.546875 -11.019531 5.851562 -11.054688 6.15625 -11.109375 C 6.175781 -11.109375 6.203125 -11.109375 6.234375 -11.109375 C 6.273438 -11.109375 6.304688 -11.109375 6.328125 -11.109375 C 6.335938 -11.109375 6.347656 -11.109375 6.359375 -11.109375 C 6.367188 -11.109375 6.378906 -11.109375 6.390625 -11.109375 C 6.535156 -11.054688 6.625 -10.914062 6.65625 -10.6875 C 6.695312 -10.46875 6.722656 -10.296875 6.734375 -10.171875 C 6.742188 -9.992188 6.742188 -9.816406 6.734375 -9.640625 C 6.722656 -9.460938 6.695312 -9.296875 6.65625 -9.140625 Z M 6.65625 -9.140625 "/></g></g><g style="fill:#000000;fill-opacity:1;"><g transform="translate(75.79163, 22.429833)"><path style="stroke:none" d="M 6.375 -6.1875 C 6.84375 -5.863281 7.160156 -5.5 7.328125 -5.09375 C 7.492188 -4.6875 7.617188 -4.210938 7.703125 -3.671875 C 7.742188 -3.304688 7.757812 -2.90625 7.75 -2.46875 C 7.75 -2.03125 7.71875 -1.625 7.65625 -1.25 C 7.632812 -1.082031 7.601562 -0.910156 7.5625 -0.734375 C 7.519531 -0.554688 7.472656 -0.382812 7.421875 -0.21875 C 7.085938 0.539062 6.585938 1.160156 5.921875 1.640625 C 5.265625 2.117188 4.535156 2.460938 3.734375 2.671875 C 3.160156 2.816406 2.578125 2.910156 1.984375 2.953125 C 1.398438 3.003906 0.8125 3.0625 0.21875 3.125 C 0.0625 3.132812 -0.0976562 3.144531 -0.265625 3.15625 C -0.429688 3.164062 -0.59375 3.171875 -0.75 3.171875 C -0.820312 3.179688 -0.894531 3.1875 -0.96875 3.1875 C -1.039062 3.195312 -1.117188 3.203125 -1.203125 3.203125 C -1.335938 3.203125 -1.453125 3.179688 -1.546875 3.140625 C -1.648438 3.085938 -1.707031 3.003906 -1.71875 2.890625 C -1.726562 2.773438 -1.738281 2.671875 -1.75 2.578125 C -1.75 2.265625 -1.742188 1.953125 -1.734375 1.640625 C -1.734375 1.335938 -1.691406 1.035156 -1.609375 0.734375 C -1.597656 0.710938 -1.585938 0.679688 -1.578125 0.640625 C -1.566406 0.609375 -1.554688 0.582031 -1.546875 0.5625 C -1.503906 0.53125 -1.441406 0.515625 -1.359375 0.515625 C -1.328125 0.515625 -1.300781 0.515625 -1.28125 0.515625 C -1.269531 0.515625 -1.257812 0.515625 -1.25 0.515625 L -0.765625 0.5625 C -0.578125 0.582031 -0.390625 0.597656 -0.203125 0.609375 C -0.015625 0.628906 0.175781 0.640625 0.375 0.640625 C 0.632812 0.640625 0.957031 0.625 1.34375 0.59375 C 1.726562 0.5625 2.117188 0.515625 2.515625 0.453125 C 2.921875 0.390625 3.289062 0.304688 3.625 0.203125 C 3.96875 0.109375 4.234375 -0.00390625 4.421875 -0.140625 C 4.796875 -0.410156 5.039062 -0.765625 5.15625 -1.203125 C 5.269531 -1.648438 5.332031 -2.082031 5.34375 -2.5 C 5.363281 -2.800781 5.359375 -3.109375 5.328125 -3.421875 C 5.304688 -3.742188 5.21875 -4.035156 5.0625 -4.296875 C 4.9375 -4.515625 4.742188 -4.671875 4.484375 -4.765625 C 4.222656 -4.867188 3.972656 -4.921875 3.734375 -4.921875 C 3.691406 -4.921875 3.648438 -4.921875 3.609375 -4.921875 C 3.566406 -4.921875 3.53125 -4.914062 3.5 -4.90625 C 3.445312 -4.894531 3.390625 -4.878906 3.328125 -4.859375 C 3.273438 -4.835938 3.234375 -4.8125 3.203125 -4.78125 C 3.085938 -4.6875 3.019531 -4.566406 3 -4.421875 C 2.976562 -4.285156 2.960938 -4.15625 2.953125 -4.03125 C 2.921875 -3.53125 2.910156 -3.023438 2.921875 -2.515625 C 2.929688 -2.003906 3.003906 -1.503906 3.140625 -1.015625 C 3.179688 -0.898438 3.210938 -0.78125 3.234375 -0.65625 C 3.265625 -0.53125 3.242188 -0.414062 3.171875 -0.3125 C 3.128906 -0.21875 3.050781 -0.148438 2.9375 -0.109375 C 2.832031 -0.078125 2.722656 -0.0507812 2.609375 -0.03125 C 2.492188 -0.0195312 2.378906 -0.0078125 2.265625 0 C 2.160156 0 2.050781 0 1.9375 0 C 1.789062 0 1.632812 0 1.46875 0 C 1.3125 -0.0078125 1.15625 -0.0195312 1 -0.03125 C 0.820312 -0.0507812 0.671875 -0.101562 0.546875 -0.1875 C 0.421875 -0.28125 0.363281 -0.421875 0.375 -0.609375 C 0.382812 -0.835938 0.414062 -1.066406 0.46875 -1.296875 C 0.53125 -1.535156 0.566406 -1.769531 0.578125 -2 C 0.585938 -2.09375 0.585938 -2.175781 0.578125 -2.25 C 0.566406 -2.332031 0.566406 -2.414062 0.578125 -2.5 C 0.585938 -2.613281 0.59375 -2.722656 0.59375 -2.828125 C 0.59375 -2.941406 0.59375 -3.054688 0.59375 -3.171875 C 0.570312 -4.078125 0.382812 -4.921875 0.03125 -5.703125 L -0.015625 -5.84375 C -0.015625 -5.882812 -0.00390625 -5.925781 0.015625 -5.96875 C 0.046875 -6.007812 0.078125 -6.046875 0.109375 -6.078125 C 0.335938 -6.410156 0.472656 -6.78125 0.515625 -7.1875 C 0.566406 -7.59375 0.59375 -8 0.59375 -8.40625 C 0.59375 -8.6875 0.585938 -8.984375 0.578125 -9.296875 C 0.578125 -9.609375 0.535156 -9.90625 0.453125 -10.1875 C 0.378906 -10.363281 0.367188 -10.519531 0.421875 -10.65625 C 0.472656 -10.789062 0.609375 -10.882812 0.828125 -10.9375 C 1.410156 -11.070312 2.007812 -11.140625 2.625 -11.140625 C 3.007812 -11.140625 3.441406 -11.09375 3.921875 -11 C 4.398438 -10.90625 4.859375 -10.757812 5.296875 -10.5625 C 5.734375 -10.375 6.078125 -10.113281 6.328125 -9.78125 C 6.453125 -9.613281 6.546875 -9.398438 6.609375 -9.140625 C 6.679688 -8.890625 6.71875 -8.660156 6.71875 -8.453125 C 6.71875 -8.066406 6.625 -7.703125 6.4375 -7.359375 C 6.25 -7.015625 5.988281 -6.734375 5.65625 -6.515625 C 5.695312 -6.523438 5.757812 -6.507812 5.84375 -6.46875 C 5.925781 -6.4375 5.976562 -6.410156 6 -6.390625 C 6.125 -6.347656 6.25 -6.28125 6.375 -6.1875 Z M 4.125 -7.734375 C 4.28125 -7.859375 4.359375 -7.96875 4.359375 -8.0625 C 4.359375 -8.144531 4.28125 -8.25 4.125 -8.375 C 3.957031 -8.507812 3.773438 -8.578125 3.578125 -8.578125 C 3.472656 -8.578125 3.382812 -8.550781 3.3125 -8.5 L 3.234375 -8.453125 C 3.210938 -8.421875 3.191406 -8.382812 3.171875 -8.34375 C 3.148438 -8.3125 3.132812 -8.273438 3.125 -8.234375 C 3.082031 -8.117188 3.078125 -8.003906 3.109375 -7.890625 C 3.109375 -7.816406 3.125 -7.753906 3.15625 -7.703125 C 3.1875 -7.640625 3.226562 -7.597656 3.28125 -7.578125 C 3.34375 -7.566406 3.40625 -7.5625 3.46875 -7.5625 C 3.59375 -7.5625 3.703125 -7.566406 3.796875 -7.578125 C 3.898438 -7.597656 4.007812 -7.648438 4.125 -7.734375 Z M 4.125 -7.734375 "/></g></g><g style="fill:#000000;fill-opacity:1;"><g transform="translate(84.29238, 22.429833)"><path style="stroke:none" d="M 5.296875 -0.234375 C 5.273438 -0.171875 5.253906 -0.132812 5.234375 -0.125 C 5.203125 -0.113281 5.15625 -0.101562 5.09375 -0.09375 C 5.03125 -0.0820312 4.984375 -0.078125 4.953125 -0.078125 C 4.941406 -0.078125 4.925781 -0.078125 4.90625 -0.078125 C 4.894531 -0.078125 4.875 -0.078125 4.84375 -0.078125 C 4.800781 -0.078125 4.757812 -0.078125 4.71875 -0.078125 C 4.675781 -0.078125 4.632812 -0.0859375 4.59375 -0.109375 C 4.4375 -0.128906 4.273438 -0.144531 4.109375 -0.15625 C 3.953125 -0.164062 3.796875 -0.171875 3.640625 -0.171875 C 3.554688 -0.171875 3.476562 -0.171875 3.40625 -0.171875 C 3.332031 -0.171875 3.253906 -0.164062 3.171875 -0.15625 C 2.941406 -0.144531 2.710938 -0.117188 2.484375 -0.078125 C 2.253906 -0.0351562 2.023438 -0.00390625 1.796875 0.015625 C 1.722656 0.0234375 1.644531 0.03125 1.5625 0.03125 C 1.488281 0.03125 1.414062 0.03125 1.34375 0.03125 C 1.0625 0.03125 0.773438 0.015625 0.484375 -0.015625 C 0.296875 -0.0351562 0.195312 -0.101562 0.1875 -0.21875 C 0.175781 -0.332031 0.175781 -0.460938 0.1875 -0.609375 C 0.207031 -0.785156 0.226562 -0.960938 0.25 -1.140625 C 0.28125 -1.316406 0.300781 -1.5 0.3125 -1.6875 C 0.332031 -2.039062 0.34375 -2.382812 0.34375 -2.71875 C 0.351562 -3.0625 0.347656 -3.410156 0.328125 -3.765625 C 0.316406 -4.109375 0.28125 -4.453125 0.21875 -4.796875 C 0.195312 -4.929688 0.160156 -5.070312 0.109375 -5.21875 C 0.0546875 -5.375 0.0351562 -5.523438 0.046875 -5.671875 C 0.0546875 -5.710938 0.0664062 -5.753906 0.078125 -5.796875 C 0.0976562 -5.835938 0.113281 -5.882812 0.125 -5.9375 C 0.226562 -6.300781 0.28125 -6.664062 0.28125 -7.03125 C 0.289062 -7.40625 0.269531 -7.773438 0.21875 -8.140625 C 0.1875 -8.503906 0.144531 -8.867188 0.09375 -9.234375 C 0.0507812 -9.609375 0.0195312 -9.984375 0 -10.359375 C -0.0078125 -10.535156 0.0078125 -10.695312 0.0625 -10.84375 C 0.113281 -11 0.226562 -11.101562 0.40625 -11.15625 C 0.675781 -11.226562 0.941406 -11.265625 1.203125 -11.265625 C 1.335938 -11.265625 1.472656 -11.257812 1.609375 -11.25 C 1.753906 -11.238281 1.90625 -11.21875 2.0625 -11.1875 C 2.144531 -11.175781 2.234375 -11.15625 2.328125 -11.125 C 2.429688 -11.101562 2.515625 -11.054688 2.578125 -10.984375 C 2.703125 -10.847656 2.734375 -10.691406 2.671875 -10.515625 C 2.617188 -10.335938 2.578125 -10.171875 2.546875 -10.015625 C 2.472656 -9.648438 2.4375 -9.257812 2.4375 -8.84375 C 2.425781 -8.457031 2.4375 -8.066406 2.46875 -7.671875 C 2.507812 -7.273438 2.570312 -6.878906 2.65625 -6.484375 L 2.765625 -5.953125 C 2.816406 -5.710938 2.804688 -5.476562 2.734375 -5.25 C 2.660156 -5.019531 2.597656 -4.789062 2.546875 -4.5625 C 2.460938 -4.019531 2.460938 -3.484375 2.546875 -2.953125 C 2.578125 -2.828125 2.648438 -2.738281 2.765625 -2.6875 C 2.890625 -2.644531 3.007812 -2.617188 3.125 -2.609375 C 3.164062 -2.597656 3.207031 -2.59375 3.25 -2.59375 C 3.289062 -2.59375 3.332031 -2.59375 3.375 -2.59375 L 3.78125 -2.59375 C 3.914062 -2.613281 4.046875 -2.632812 4.171875 -2.65625 C 4.296875 -2.675781 4.421875 -2.695312 4.546875 -2.71875 C 4.597656 -2.738281 4.664062 -2.753906 4.75 -2.765625 C 4.84375 -2.785156 4.925781 -2.796875 5 -2.796875 C 5.207031 -2.796875 5.3125 -2.691406 5.3125 -2.484375 C 5.375 -2.222656 5.414062 -1.953125 5.4375 -1.671875 C 5.46875 -1.398438 5.46875 -1.132812 5.4375 -0.875 C 5.425781 -0.789062 5.40625 -0.679688 5.375 -0.546875 C 5.351562 -0.410156 5.328125 -0.304688 5.296875 -0.234375 Z M 5.296875 -0.234375 "/></g></g><g style="fill:#000000;fill-opacity:1;"><g transform="translate(89.759456, 22.429833)"><path style="stroke:none" d="M 8.546875 -5.671875 C 8.546875 -5.585938 8.53125 -5.484375 8.5 -5.359375 C 8.46875 -5.242188 8.425781 -5.125 8.375 -5 C 8.332031 -4.875 8.289062 -4.75 8.25 -4.625 C 8.144531 -4.34375 8.054688 -4.050781 7.984375 -3.75 C 7.921875 -3.457031 7.835938 -3.164062 7.734375 -2.875 C 7.515625 -2.289062 7.21875 -1.773438 6.84375 -1.328125 C 6.476562 -0.878906 6.015625 -0.507812 5.453125 -0.21875 C 5.367188 -0.1875 5.289062 -0.148438 5.21875 -0.109375 C 5.144531 -0.078125 5.0625 -0.0507812 4.96875 -0.03125 C 4.925781 -0.0195312 4.878906 -0.0078125 4.828125 0 C 4.785156 0 4.742188 0 4.703125 0 C 4.660156 0 4.625 0 4.59375 0 C 4.5625 -0.0078125 4.523438 -0.015625 4.484375 -0.015625 C 4.390625 -0.015625 4.289062 -0.015625 4.1875 -0.015625 C 4.09375 -0.0234375 3.992188 -0.03125 3.890625 -0.03125 C 3.734375 -0.03125 3.566406 -0.046875 3.390625 -0.078125 C 3.128906 -0.140625 2.867188 -0.269531 2.609375 -0.46875 C 2.359375 -0.675781 2.117188 -0.921875 1.890625 -1.203125 C 1.671875 -1.484375 1.472656 -1.769531 1.296875 -2.0625 C 1.128906 -2.351562 1 -2.613281 0.90625 -2.84375 C 0.820312 -3.0625 0.757812 -3.28125 0.71875 -3.5 C 0.6875 -3.726562 0.640625 -3.953125 0.578125 -4.171875 C 0.515625 -4.398438 0.4375 -4.617188 0.34375 -4.828125 C 0.257812 -5.035156 0.160156 -5.242188 0.046875 -5.453125 C 0.015625 -5.503906 0 -5.554688 0 -5.609375 C 0 -5.648438 0.0078125 -5.6875 0.03125 -5.71875 C 0.0625 -5.75 0.0976562 -5.78125 0.140625 -5.8125 C 0.265625 -5.9375 0.363281 -6.078125 0.4375 -6.234375 C 0.507812 -6.390625 0.566406 -6.546875 0.609375 -6.703125 C 0.660156 -6.859375 0.695312 -7.019531 0.71875 -7.1875 C 0.738281 -7.351562 0.773438 -7.507812 0.828125 -7.65625 C 0.929688 -8.132812 1.113281 -8.617188 1.375 -9.109375 C 1.625 -9.523438 1.875 -9.882812 2.125 -10.1875 C 2.382812 -10.488281 2.691406 -10.722656 3.046875 -10.890625 C 3.410156 -11.054688 3.859375 -11.140625 4.390625 -11.140625 C 5.128906 -11.140625 5.726562 -10.960938 6.1875 -10.609375 C 6.65625 -10.265625 7.03125 -9.8125 7.3125 -9.25 C 7.59375 -8.695312 7.816406 -8.097656 7.984375 -7.453125 C 8.046875 -7.222656 8.109375 -6.988281 8.171875 -6.75 C 8.234375 -6.519531 8.320312 -6.296875 8.4375 -6.078125 C 8.507812 -5.929688 8.546875 -5.796875 8.546875 -5.671875 Z M 5.578125 -3.296875 C 5.753906 -3.609375 5.847656 -3.953125 5.859375 -4.328125 C 5.867188 -4.703125 5.800781 -5.046875 5.65625 -5.359375 C 5.625 -5.421875 5.609375 -5.476562 5.609375 -5.53125 C 5.609375 -5.570312 5.617188 -5.609375 5.640625 -5.640625 C 5.660156 -5.671875 5.675781 -5.695312 5.6875 -5.71875 C 5.8125 -5.90625 5.863281 -6.085938 5.84375 -6.265625 C 5.820312 -6.441406 5.796875 -6.625 5.765625 -6.8125 C 5.691406 -7.164062 5.550781 -7.492188 5.34375 -7.796875 C 5.25 -7.972656 5.125 -8.128906 4.96875 -8.265625 C 4.820312 -8.398438 4.640625 -8.472656 4.421875 -8.484375 C 4.179688 -8.484375 3.96875 -8.410156 3.78125 -8.265625 C 3.707031 -8.179688 3.632812 -8.09375 3.5625 -8 C 3.5 -7.914062 3.4375 -7.828125 3.375 -7.734375 C 3.226562 -7.441406 3.101562 -7.109375 3 -6.734375 C 2.90625 -6.367188 2.957031 -6.03125 3.15625 -5.71875 C 3.175781 -5.695312 3.191406 -5.671875 3.203125 -5.640625 C 3.222656 -5.609375 3.234375 -5.570312 3.234375 -5.53125 C 3.242188 -5.488281 3.226562 -5.429688 3.1875 -5.359375 C 3 -4.953125 2.921875 -4.519531 2.953125 -4.0625 C 2.992188 -3.601562 3.164062 -3.191406 3.46875 -2.828125 C 3.5625 -2.703125 3.679688 -2.585938 3.828125 -2.484375 C 3.972656 -2.390625 4.128906 -2.34375 4.296875 -2.34375 C 4.585938 -2.34375 4.84375 -2.441406 5.0625 -2.640625 C 5.289062 -2.835938 5.460938 -3.054688 5.578125 -3.296875 Z M 5.578125 -3.296875 "/></g></g><g style="fill:#000000;fill-opacity:1;"><g transform="translate(99.168555, 22.429833)"><path style="stroke:none" d="M 7.734375 -4.125 C 7.734375 -3.988281 7.734375 -3.851562 7.734375 -3.71875 C 7.742188 -3.582031 7.738281 -3.453125 7.71875 -3.328125 C 7.707031 -3.210938 7.6875 -3.101562 7.65625 -3 C 7.632812 -2.894531 7.613281 -2.785156 7.59375 -2.671875 L 7.4375 -2.09375 C 7.21875 -1.4375 6.84375 -0.914062 6.3125 -0.53125 C 5.78125 -0.15625 5.171875 0.03125 4.484375 0.03125 C 3.535156 0.03125 2.722656 -0.21875 2.046875 -0.71875 C 1.367188 -1.21875 0.929688 -1.957031 0.734375 -2.9375 C 0.628906 -3.332031 0.53125 -3.734375 0.4375 -4.140625 C 0.351562 -4.546875 0.222656 -4.929688 0.046875 -5.296875 C 0.015625 -5.347656 0 -5.398438 0 -5.453125 C 0 -5.503906 0.0195312 -5.566406 0.0625 -5.640625 C 0.25 -5.960938 0.367188 -6.285156 0.421875 -6.609375 C 0.484375 -6.941406 0.539062 -7.285156 0.59375 -7.640625 C 0.695312 -8.242188 0.9375 -8.800781 1.3125 -9.3125 C 1.695312 -9.820312 2.164062 -10.226562 2.71875 -10.53125 C 3.269531 -10.84375 3.851562 -11 4.46875 -11 C 4.789062 -11 5.09375 -10.96875 5.375 -10.90625 C 5.769531 -10.75 6.097656 -10.554688 6.359375 -10.328125 C 6.617188 -10.109375 6.816406 -9.789062 6.953125 -9.375 C 7.015625 -9.207031 7.046875 -9.023438 7.046875 -8.828125 C 7.046875 -8.640625 7.054688 -8.457031 7.078125 -8.28125 C 7.109375 -8.101562 7.195312 -7.945312 7.34375 -7.8125 C 7.363281 -7.800781 7.378906 -7.789062 7.390625 -7.78125 C 7.398438 -7.769531 7.410156 -7.753906 7.421875 -7.734375 C 7.429688 -7.691406 7.4375 -7.640625 7.4375 -7.578125 C 7.40625 -7.421875 7.285156 -7.316406 7.078125 -7.265625 C 6.878906 -7.210938 6.710938 -7.171875 6.578125 -7.140625 C 6.328125 -7.117188 6.078125 -7.101562 5.828125 -7.09375 C 5.578125 -7.09375 5.320312 -7.09375 5.0625 -7.09375 C 4.988281 -7.09375 4.914062 -7.097656 4.84375 -7.109375 C 4.78125 -7.117188 4.71875 -7.148438 4.65625 -7.203125 C 4.613281 -7.234375 4.582031 -7.285156 4.5625 -7.359375 C 4.5625 -7.390625 4.570312 -7.4375 4.59375 -7.5 C 4.625 -7.613281 4.648438 -7.753906 4.671875 -7.921875 C 4.703125 -8.085938 4.695312 -8.242188 4.65625 -8.390625 C 4.613281 -8.535156 4.507812 -8.613281 4.34375 -8.625 C 4.050781 -8.625 3.832031 -8.503906 3.6875 -8.265625 C 3.539062 -8.023438 3.421875 -7.789062 3.328125 -7.5625 C 3.210938 -7.269531 3.160156 -6.960938 3.171875 -6.640625 C 3.191406 -6.328125 3.273438 -6.035156 3.421875 -5.765625 C 3.453125 -5.710938 3.46875 -5.664062 3.46875 -5.625 C 3.46875 -5.601562 3.453125 -5.566406 3.421875 -5.515625 C 3.171875 -5.066406 3.066406 -4.59375 3.109375 -4.09375 C 3.128906 -3.914062 3.195312 -3.6875 3.3125 -3.40625 C 3.4375 -3.125 3.59375 -2.867188 3.78125 -2.640625 C 3.96875 -2.421875 4.175781 -2.3125 4.40625 -2.3125 C 4.457031 -2.3125 4.503906 -2.316406 4.546875 -2.328125 C 4.691406 -2.359375 4.816406 -2.441406 4.921875 -2.578125 C 5.085938 -2.742188 5.203125 -2.945312 5.265625 -3.1875 C 5.328125 -3.425781 5.332031 -3.660156 5.28125 -3.890625 C 5.269531 -3.972656 5.238281 -4.046875 5.1875 -4.109375 C 5.144531 -4.171875 5.078125 -4.203125 4.984375 -4.203125 C 4.910156 -4.203125 4.832031 -4.179688 4.75 -4.140625 C 4.664062 -4.097656 4.585938 -4.078125 4.515625 -4.078125 C 4.453125 -4.078125 4.410156 -4.085938 4.390625 -4.109375 C 4.335938 -4.148438 4.300781 -4.203125 4.28125 -4.265625 C 4.25 -4.347656 4.226562 -4.425781 4.21875 -4.5 C 4.207031 -4.582031 4.195312 -4.664062 4.1875 -4.75 C 4.175781 -4.914062 4.171875 -5.085938 4.171875 -5.265625 C 4.171875 -5.441406 4.179688 -5.625 4.203125 -5.8125 C 4.210938 -5.925781 4.238281 -6.078125 4.28125 -6.265625 C 4.320312 -6.460938 4.40625 -6.585938 4.53125 -6.640625 C 4.550781 -6.648438 4.578125 -6.65625 4.609375 -6.65625 C 4.640625 -6.65625 4.671875 -6.648438 4.703125 -6.640625 C 4.742188 -6.640625 4.78125 -6.628906 4.8125 -6.609375 C 4.882812 -6.597656 4.953125 -6.585938 5.015625 -6.578125 C 5.078125 -6.578125 5.140625 -6.578125 5.203125 -6.578125 C 5.296875 -6.578125 5.390625 -6.578125 5.484375 -6.578125 C 5.578125 -6.578125 5.660156 -6.578125 5.734375 -6.578125 C 5.773438 -6.578125 5.8125 -6.578125 5.84375 -6.578125 C 5.875 -6.578125 5.910156 -6.578125 5.953125 -6.578125 C 6.421875 -6.523438 6.773438 -6.382812 7.015625 -6.15625 C 7.265625 -5.9375 7.441406 -5.648438 7.546875 -5.296875 C 7.648438 -4.953125 7.710938 -4.5625 7.734375 -4.125 Z M 7.734375 -4.125 "/></g></g><g style="fill:#ff9333;fill-opacity:1;"><g transform="translate(107.778152, 22.429833)"><path style="stroke:none" d="M 2.1875 -0.28125 C 2.1875 0.03125 2.082031 0.289062 1.875 0.5 C 1.664062 0.71875 1.40625 0.828125 1.09375 0.828125 C 0.789062 0.828125 0.535156 0.71875 0.328125 0.5 C 0.109375 0.289062 0 0.03125 0 -0.28125 C 0 -0.582031 0.109375 -0.835938 0.328125 -1.046875 C 0.535156 -1.265625 0.789062 -1.375 1.09375 -1.375 C 1.40625 -1.375 1.664062 -1.265625 1.875 -1.046875 C 2.082031 -0.835938 2.1875 -0.582031 2.1875 -0.28125 Z M 2.1875 -0.28125 "/></g></g></g></svg>