<svg xmlns="http://www.w3.org/2000/svg" xmlns:xlink="http://www.w3.org/1999/xlink" width="55" zoomAndPan="magnify" viewBox="0 0 41.25 41.250001" height="55" preserveAspectRatio="xMidYMid meet" version="1.2"><defs><clipPath id="d1de8a1111"><path d="M 0.367188 0.367188 L 40.144531 0.367188 L 40.144531 40.144531 L 0.367188 40.144531 Z M 0.367188 0.367188 "/></clipPath><clipPath id="e481c29618"><path d="M 20.257812 0.367188 C 9.273438 0.367188 0.367188 9.273438 0.367188 20.257812 C 0.367188 31.242188 9.273438 40.144531 20.257812 40.144531 C 31.242188 40.144531 40.144531 31.242188 40.144531 20.257812 C 40.144531 9.273438 31.242188 0.367188 20.257812 0.367188 Z M 20.257812 0.367188 "/></clipPath></defs><g id="43e92cab35"><g clip-rule="nonzero" clip-path="url(#d1de8a1111)"><g clip-rule="nonzero" clip-path="url(#e481c29618)"><path style=" stroke:none;fill-rule:nonzero;fill:#004aad;fill-opacity:1;" d="M 0.367188 0.367188 L 40.144531 0.367188 L 40.144531 40.144531 L 0.367188 40.144531 Z M 0.367188 0.367188 "/></g></g><g style="fill:#ffffff;fill-opacity:1;"><g transform="translate(10.527538, 33.554167)"><path style="stroke:none" d="M 11.75 -31.234375 C 12.9375 -31.234375 14.0625 -30.976562 15.125 -30.46875 C 16.195312 -29.96875 17.085938 -29.257812 17.796875 -28.34375 C 18.515625 -27.425781 18.914062 -26.34375 19 -25.09375 C 19.144531 -23.550781 19.0625 -22.0625 18.75 -20.625 C 18.445312 -19.1875 17.804688 -17.828125 16.828125 -16.546875 C 15.640625 -15.035156 14.195312 -13.820312 12.5 -12.90625 C 12.207031 -12.789062 11.90625 -12.703125 11.59375 -12.640625 C 11.28125 -12.578125 10.960938 -12.515625 10.640625 -12.453125 C 10.398438 -12.429688 10.164062 -12.394531 9.9375 -12.34375 C 9.71875 -12.300781 9.488281 -12.25 9.25 -12.1875 C 9.550781 -11 9.828125 -9.816406 10.078125 -8.640625 C 10.328125 -7.472656 10.601562 -6.328125 10.90625 -5.203125 C 11.050781 -4.640625 11.210938 -4.082031 11.390625 -3.53125 C 11.566406 -2.988281 11.726562 -2.445312 11.875 -1.90625 C 12 -1.519531 12.113281 -1.128906 12.21875 -0.734375 C 12.320312 -0.335938 12.429688 0.0664062 12.546875 0.484375 C 12.722656 1.046875 12.96875 1.59375 13.28125 2.125 C 13.59375 2.664062 13.988281 3.1875 14.46875 3.6875 C 14.34375 3.71875 14.234375 3.734375 14.140625 3.734375 C 14.054688 3.734375 13.972656 3.734375 13.890625 3.734375 C 13.117188 3.734375 12.40625 3.457031 11.75 2.90625 C 11.09375 2.363281 10.550781 1.707031 10.125 0.9375 C 9.695312 0.164062 9.378906 -0.546875 9.171875 -1.203125 C 8.722656 -2.679688 8.273438 -4.15625 7.828125 -5.625 C 7.390625 -7.09375 7.050781 -8.597656 6.8125 -10.140625 C 6.8125 -10.203125 6.75 -10.335938 6.625 -10.546875 C 6.601562 -10.429688 6.566406 -10.320312 6.515625 -10.21875 C 6.472656 -10.113281 6.4375 -10.03125 6.40625 -9.96875 C 6.082031 -8.632812 5.753906 -7.289062 5.421875 -5.9375 C 5.097656 -4.59375 4.773438 -3.25 4.453125 -1.90625 C 4.328125 -1.257812 4.066406 -0.859375 3.671875 -0.703125 C 3.273438 -0.554688 2.78125 -0.484375 2.1875 -0.484375 C 1.738281 -0.515625 1.445312 -0.617188 1.3125 -0.796875 C 1.175781 -0.972656 1.125 -1.285156 1.15625 -1.734375 C 1.394531 -3.960938 1.75 -6.1875 2.21875 -8.40625 C 2.519531 -9.769531 2.785156 -11.140625 3.015625 -12.515625 C 3.253906 -13.898438 3.507812 -15.273438 3.78125 -16.640625 C 3.875 -17.085938 3.984375 -17.53125 4.109375 -17.96875 C 4.242188 -18.414062 4.359375 -18.878906 4.453125 -19.359375 C 4.597656 -20.015625 4.742188 -20.675781 4.890625 -21.34375 C 5.046875 -22.007812 5.210938 -22.664062 5.390625 -23.3125 C 5.472656 -23.695312 5.617188 -24.203125 5.828125 -24.828125 C 6.035156 -25.453125 6.3125 -26.015625 6.65625 -26.515625 C 7 -27.023438 7.421875 -27.28125 7.921875 -27.28125 C 8.160156 -27.28125 8.375 -27.191406 8.5625 -27.015625 C 8.757812 -26.835938 8.828125 -26.582031 8.765625 -26.25 C 8.378906 -22.21875 7.890625 -18.15625 7.296875 -14.0625 C 7.265625 -14 7.253906 -13.921875 7.265625 -13.828125 C 7.285156 -13.742188 7.296875 -13.644531 7.296875 -13.53125 C 9.253906 -13.914062 10.898438 -14.804688 12.234375 -16.203125 C 14.785156 -18.929688 15.707031 -22.132812 15 -25.8125 C 14.875 -26.4375 14.601562 -27.046875 14.1875 -27.640625 C 13.78125 -28.234375 13.285156 -28.726562 12.703125 -29.125 C 12.128906 -29.519531 11.5 -29.71875 10.8125 -29.71875 C 10.488281 -29.71875 10.160156 -29.660156 9.828125 -29.546875 C 8.140625 -28.953125 6.578125 -28.171875 5.140625 -27.203125 C 3.703125 -26.242188 2.40625 -25.066406 1.25 -23.671875 C 1.1875 -23.585938 1.117188 -23.5 1.046875 -23.40625 C 0.972656 -23.320312 0.90625 -23.25 0.84375 -23.1875 C 0.78125 -23.09375 0.71875 -23 0.65625 -22.90625 C 0.601562 -22.820312 0.53125 -22.738281 0.4375 -22.65625 C 0.03125 -22.914062 -0.0820312 -23.253906 0.09375 -23.671875 C 0.207031 -23.941406 0.316406 -24.21875 0.421875 -24.5 C 0.523438 -24.78125 0.664062 -25.023438 0.84375 -25.234375 C 1.644531 -26.242188 2.640625 -27.207031 3.828125 -28.125 C 5.015625 -29.039062 6.296875 -29.785156 7.671875 -30.359375 C 9.054688 -30.941406 10.414062 -31.234375 11.75 -31.234375 Z M 11.75 -31.234375 "/></g></g></g></svg>